<svg xmlns="http://www.w3.org/2000/svg" width="48" height="48" viewBox="0 0 48 48" fill="none">
<path d="M10.2222 14C9.00771 14 8 15.0077 8 16.2222V22.8889H16.8889V21.7778V14H10.2222ZM19.1111 14V22.8889H28V21.7778V16.2222C28 15.0077 26.9923 14 25.7778 14H19.1111ZM10.2222 16.2222H14.6667V20.6667H10.2222V16.2222ZM21.3333 16.2222H25.7778V20.6667H21.3333V16.2222ZM8 25.1111V31.7778C8 32.9923 9.00771 34 10.2222 34H16.8889V32.8889V25.1111H8ZM19.1111 25.1111V34H25.7778C26.9923 34 28 32.9923 28 31.7778V25.1111H19.1111ZM10.2222 27.3333H14.6667V31.7778H10.2222V27.3333ZM21.3333 27.3333H25.7778V31.7778H21.3333V27.3333Z" fill="#22B38C"/>
</svg>