<svg xmlns="http://www.w3.org/2000/svg" width="48" height="48" viewBox="0 0 48 48" fill="none">
<path d="M26.6367 29.0488V27.1397C26.6367 26.5874 26.189 26.1397 25.6367 26.1397H18.6445V24.7846L22.4563 22.4953C22.7573 22.3145 22.9414 21.9891 22.9414 21.638V16.5337C22.9414 16.1826 22.7573 15.8572 22.4563 15.6764L18.5149 13.3092C18.198 13.1189 17.802 13.1189 17.4851 13.3092L13.5437 15.6764C13.2427 15.8572 13.0586 16.1826 13.0586 16.5337V21.638C13.0586 21.9891 13.2427 22.3145 13.5437 22.4953L17.3555 24.7846V26.1397H10.3633C9.811 26.1397 9.36328 26.5874 9.36328 27.1397V29.0488C8.01363 29.345 7 30.5505 7 31.9892C7 33.6495 8.34932 35 10.0078 35C11.6663 35 13.0156 33.6495 13.0156 31.9892C13.0156 30.5507 12.002 29.345 10.6523 29.0488V27.93C10.6523 27.6539 10.8762 27.43 11.1523 27.43H17.3555V29.0488C16.0058 29.345 14.9922 30.5505 14.9922 31.9892C14.9922 33.6495 16.3415 35 18 35C19.6585 35 21.0078 33.6495 21.0078 31.9892C21.0078 30.5507 19.9942 29.345 18.6445 29.0488V27.43H24.8477C25.1238 27.43 25.3477 27.6539 25.3477 27.93V29.0488C23.998 29.345 22.9844 30.5505 22.9844 31.9892C22.9844 33.6495 24.3337 35 25.9922 35C27.6507 35 29 33.6495 29 31.9892C29 30.5505 27.9864 29.345 26.6367 29.0488ZM18.6445 23.2797V20.0534L21.6523 18.2469V21.4732L18.6445 23.2797ZM18 14.5049L21.6523 16.6985V16.742L18 18.9356L14.3477 16.742V16.6985L18 14.5049ZM14.3477 18.2467L17.3555 20.0532V23.2797L14.3477 21.4732V18.2467ZM11.7266 31.9892C11.7266 32.938 10.9555 33.7097 10.0078 33.7097C9.06015 33.7097 8.28906 32.938 8.28906 31.9892C8.28906 31.0406 9.06015 30.2687 10.0078 30.2687C10.9555 30.2687 11.7266 31.0406 11.7266 31.9892ZM19.7188 31.9892C19.7188 32.938 18.9477 33.7097 18 33.7097C17.0523 33.7097 16.2812 32.938 16.2812 31.9892C16.2812 31.0406 17.0523 30.2687 18 30.2687C18.9477 30.2687 19.7188 31.0406 19.7188 31.9892ZM25.9922 33.7097C25.0445 33.7097 24.2734 32.938 24.2734 31.9892C24.2734 31.0406 25.0445 30.2687 25.9922 30.2687C26.9398 30.2687 27.7109 31.0406 27.7109 31.9892C27.7109 32.938 26.9398 33.7097 25.9922 33.7097Z" fill="#22B38C"/>
<path d="M26.6367 29.0488H26.3367V29.2901L26.5724 29.3418L26.6367 29.0488ZM18.6445 26.1397H18.3445V26.4397H18.6445V26.1397ZM18.6445 24.7846L18.4901 24.5274L18.3445 24.6149V24.7846H18.6445ZM17.3555 24.7846H17.6555V24.6149L17.5099 24.5274L17.3555 24.7846ZM17.3555 26.1397V26.4397H17.6555V26.1397H17.3555ZM9.36328 29.0488L9.42759 29.3418L9.66328 29.2901V29.0488H9.36328ZM10.6523 29.0488H10.3523V29.2901L10.588 29.3418L10.6523 29.0488ZM17.3555 27.43H17.6555V27.13H17.3555V27.43ZM17.3555 29.0488L17.4198 29.3418L17.6555 29.2901V29.0488H17.3555ZM18.6445 29.0488H18.3445V29.2901L18.5802 29.3418L18.6445 29.0488ZM18.6445 27.43V27.13H18.3445V27.43H18.6445ZM25.3477 29.0488L25.412 29.3418L25.6477 29.2901V29.0488H25.3477ZM18.6445 23.2797H18.3445V23.8099L18.799 23.5369L18.6445 23.2797ZM18.6445 20.0534L18.4901 19.7962L18.3445 19.8836V20.0534H18.6445ZM21.6523 18.2469H21.9523V17.7168L21.4979 17.9897L21.6523 18.2469ZM21.6523 21.4732L21.8068 21.7304L21.9523 21.643V21.4732H21.6523ZM18 14.5049L18.1545 14.2477L18 14.1549L17.8455 14.2477L18 14.5049ZM21.6523 16.6985H21.9523V16.5287L21.8068 16.4413L21.6523 16.6985ZM21.6523 16.742L21.8068 16.9992L21.9523 16.9118V16.742H21.6523ZM18 18.9356L17.8455 19.1928L18 19.2855L18.1545 19.1928L18 18.9356ZM14.3477 16.742H14.0477V16.9118L14.1932 16.9992L14.3477 16.742ZM14.3477 16.6985L14.1932 16.4413L14.0477 16.5287V16.6985H14.3477ZM14.3477 18.2467L14.5021 17.9895L14.0477 17.7166V18.2467H14.3477ZM17.3555 20.0532H17.6555V19.8834L17.5099 19.796L17.3555 20.0532ZM17.3555 23.2797L17.201 23.5369L17.6555 23.8099V23.2797H17.3555ZM14.3477 21.4732H14.0477V21.643L14.1932 21.7304L14.3477 21.4732ZM13.5437 22.4953L13.3893 22.7525L13.5437 22.4953ZM22.4563 15.6764L22.3018 15.9336L22.4563 15.6764ZM22.4563 22.4953L22.6107 22.7525L22.4563 22.4953ZM17.4851 13.3092L17.3307 13.052L17.4851 13.3092ZM26.9367 29.0488V27.1397H26.3367V29.0488H26.9367ZM25.6367 25.8397H18.6445V26.4397H25.6367V25.8397ZM18.9445 26.1397V24.7846H18.3445V26.1397H18.9445ZM18.799 25.0418L22.6107 22.7525L22.3018 22.2381L18.4901 24.5274L18.799 25.0418ZM23.2414 21.638V16.5337H22.6414V21.638H23.2414ZM22.6107 15.4192L18.6693 13.052L18.3604 13.5664L22.3018 15.9336L22.6107 15.4192ZM17.3307 13.052L13.3893 15.4192L13.6982 15.9336L17.6396 13.5664L17.3307 13.052ZM12.7586 16.5337V21.638H13.3586V16.5337H12.7586ZM13.3893 22.7525L17.201 25.0418L17.5099 24.5274L13.6982 22.2381L13.3893 22.7525ZM17.0555 24.7846V26.1397H17.6555V24.7846H17.0555ZM17.3555 25.8397H10.3633V26.4397H17.3555V25.8397ZM9.06328 27.1397V29.0488H9.66328V27.1397H9.06328ZM9.29897 28.7558C7.81478 29.0815 6.7 30.4065 6.7 31.9892H7.3C7.3 30.6946 8.21247 29.6085 9.42759 29.3418L9.29897 28.7558ZM6.7 31.9892C6.7 33.8149 8.18336 35.3 10.0078 35.3V34.7C8.51527 34.7 7.3 33.4841 7.3 31.9892H6.7ZM10.0078 35.3C11.8323 35.3 13.3156 33.8149 13.3156 31.9892H12.7156C12.7156 33.4841 11.5004 34.7 10.0078 34.7V35.3ZM13.3156 31.9892C13.3156 30.4066 12.2009 29.0815 10.7167 28.7558L10.588 29.3418C11.8031 29.6085 12.7156 30.6947 12.7156 31.9892H13.3156ZM10.9523 29.0488V27.93H10.3523V29.0488H10.9523ZM11.1523 27.73H17.3555V27.13H11.1523V27.73ZM17.0555 27.43V29.0488H17.6555V27.43H17.0555ZM17.2912 28.7558C15.807 29.0815 14.6922 30.4065 14.6922 31.9892H15.2922C15.2922 30.6946 16.2047 29.6085 17.4198 29.3418L17.2912 28.7558ZM14.6922 31.9892C14.6922 33.8149 16.1756 35.3 18 35.3V34.7C16.5075 34.7 15.2922 33.4841 15.2922 31.9892H14.6922ZM18 35.3C19.8244 35.3 21.3078 33.8149 21.3078 31.9892H20.7078C20.7078 33.4841 19.4925 34.7 18 34.7V35.3ZM21.3078 31.9892C21.3078 30.4066 20.193 29.0815 18.7088 28.7558L18.5802 29.3418C19.7953 29.6085 20.7078 30.6947 20.7078 31.9892H21.3078ZM18.9445 29.0488V27.43H18.3445V29.0488H18.9445ZM18.6445 27.73H24.8477V27.13H18.6445V27.73ZM25.0477 27.93V29.0488H25.6477V27.93H25.0477ZM25.2833 28.7558C23.7992 29.0815 22.6844 30.4065 22.6844 31.9892H23.2844C23.2844 30.6946 24.1968 29.6085 25.412 29.3418L25.2833 28.7558ZM22.6844 31.9892C22.6844 33.8149 24.1677 35.3 25.9922 35.3V34.7C24.4996 34.7 23.2844 33.4841 23.2844 31.9892H22.6844ZM25.9922 35.3C27.8166 35.3 29.3 33.8149 29.3 31.9892H28.7C28.7 33.4841 27.4847 34.7 25.9922 34.7V35.3ZM29.3 31.9892C29.3 30.4065 28.1852 29.0815 26.701 28.7558L26.5724 29.3418C27.7875 29.6085 28.7 30.6946 28.7 31.9892H29.3ZM18.9445 23.2797V20.0534H18.3445V23.2797H18.9445ZM18.799 20.3105L21.8068 18.5041L21.4979 17.9897L18.4901 19.7962L18.799 20.3105ZM21.3523 18.2469V21.4732H21.9523V18.2469H21.3523ZM21.4979 21.2161L18.4901 23.0225L18.799 23.5369L21.8068 21.7304L21.4979 21.2161ZM17.8455 14.7621L21.4979 16.9557L21.8068 16.4413L18.1545 14.2477L17.8455 14.7621ZM21.3523 16.6985V16.742H21.9523V16.6985H21.3523ZM21.4979 16.4848L17.8455 18.6784L18.1545 19.1928L21.8068 16.9992L21.4979 16.4848ZM18.1545 18.6784L14.5021 16.4848L14.1932 16.9992L17.8455 19.1928L18.1545 18.6784ZM14.6477 16.742V16.6985H14.0477V16.742H14.6477ZM14.5021 16.9557L18.1545 14.7621L17.8455 14.2477L14.1932 16.4413L14.5021 16.9557ZM14.1932 18.5039L17.201 20.3104L17.5099 19.796L14.5021 17.9895L14.1932 18.5039ZM17.0555 20.0532V23.2797H17.6555V20.0532H17.0555ZM17.5099 23.0225L14.5021 21.2161L14.1932 21.7304L17.201 23.5369L17.5099 23.0225ZM14.6477 21.4732V18.2467H14.0477V21.4732H14.6477ZM11.4266 31.9892C11.4266 32.7725 10.7895 33.4097 10.0078 33.4097V34.0097C11.1214 34.0097 12.0266 33.1034 12.0266 31.9892H11.4266ZM10.0078 33.4097C9.2261 33.4097 8.58906 32.7725 8.58906 31.9892H7.98906C7.98906 33.1034 8.8942 34.0097 10.0078 34.0097V33.4097ZM8.58906 31.9892C8.58906 31.206 9.22612 30.5687 10.0078 30.5687V29.9687C8.89418 29.9687 7.98906 30.8752 7.98906 31.9892H8.58906ZM10.0078 30.5687C10.7895 30.5687 11.4266 31.206 11.4266 31.9892H12.0266C12.0266 30.8752 11.1214 29.9687 10.0078 29.9687V30.5687ZM19.4187 31.9892C19.4187 32.7725 18.7817 33.4097 18 33.4097V34.0097C19.1136 34.0097 20.0188 33.1034 20.0188 31.9892H19.4187ZM18 33.4097C17.2183 33.4097 16.5813 32.7725 16.5813 31.9892H15.9812C15.9812 33.1034 16.8864 34.0097 18 34.0097V33.4097ZM16.5813 31.9892C16.5813 31.206 17.2183 30.5687 18 30.5687V29.9687C16.8864 29.9687 15.9812 30.8752 15.9812 31.9892H16.5813ZM18 30.5687C18.7817 30.5687 19.4187 31.206 19.4187 31.9892H20.0188C20.0188 30.8752 19.1136 29.9687 18 29.9687V30.5687ZM25.9922 33.4097C25.2105 33.4097 24.5734 32.7725 24.5734 31.9892H23.9734C23.9734 33.1034 24.8786 34.0097 25.9922 34.0097V33.4097ZM24.5734 31.9892C24.5734 31.206 25.2105 30.5687 25.9922 30.5687V29.9687C24.8786 29.9687 23.9734 30.8752 23.9734 31.9892H24.5734ZM25.9922 30.5687C26.7739 30.5687 27.4109 31.206 27.4109 31.9892H28.0109C28.0109 30.8752 27.1058 29.9687 25.9922 29.9687V30.5687ZM27.4109 31.9892C27.4109 32.7725 26.7739 33.4097 25.9922 33.4097V34.0097C27.1058 34.0097 28.0109 33.1034 28.0109 31.9892H27.4109ZM24.8477 27.73C24.9581 27.73 25.0477 27.8195 25.0477 27.93H25.6477C25.6477 27.4882 25.2895 27.13 24.8477 27.13V27.73ZM10.3633 25.8397C9.64531 25.8397 9.06328 26.4217 9.06328 27.1397H9.66328C9.66328 26.7531 9.97668 26.4397 10.3633 26.4397V25.8397ZM12.7586 21.638C12.7586 22.0945 12.998 22.5175 13.3893 22.7525L13.6982 22.2381C13.4875 22.1116 13.3586 21.8838 13.3586 21.638H12.7586ZM13.3893 15.4192C12.998 15.6542 12.7586 16.0772 12.7586 16.5337H13.3586C13.3586 16.2879 13.4875 16.0601 13.6982 15.9336L13.3893 15.4192ZM23.2414 16.5337C23.2414 16.0773 23.002 15.6542 22.6107 15.4192L22.3018 15.9336C22.5125 16.0601 22.6414 16.2879 22.6414 16.5337H23.2414ZM22.6107 22.7525C23.002 22.5175 23.2414 22.0945 23.2414 21.638H22.6414C22.6414 21.8838 22.5125 22.1116 22.3018 22.2381L22.6107 22.7525ZM10.9523 27.93C10.9523 27.8195 11.0419 27.73 11.1523 27.73V27.13C10.7105 27.13 10.3523 27.4882 10.3523 27.93H10.9523ZM18.6693 13.052C18.2574 12.8046 17.7426 12.8046 17.3307 13.052L17.6396 13.5664C17.8614 13.4332 18.1386 13.4332 18.3604 13.5664L18.6693 13.052ZM26.9367 27.1397C26.9367 26.4217 26.3547 25.8397 25.6367 25.8397V26.4397C26.0233 26.4397 26.3367 26.7531 26.3367 27.1397H26.9367Z" fill="#22B38C"/>
</svg>