<svg xmlns="http://www.w3.org/2000/svg" width="32" height="33" viewBox="0 0 32 33" fill="none">
<circle opacity="0.2" cx="16" cy="16.5" r="16" fill="#0658FD"/>
<path d="M10.5556 10C9.7054 10 9 10.7054 9 11.5556V16.2222H15.2222V15.4444V10H10.5556ZM16.7778 10V16.2222H23V15.4444V11.5556C23 10.7054 22.2946 10 21.4444 10H16.7778ZM10.5556 11.5556H13.6667V14.6667H10.5556V11.5556ZM18.3333 11.5556H21.4444V14.6667H18.3333V11.5556ZM9 17.7778V22.4444C9 23.2946 9.7054 24 10.5556 24H15.2222V23.2222V17.7778H9ZM16.7778 17.7778V24H21.4444C22.2946 24 23 23.2946 23 22.4444V17.7778H16.7778ZM10.5556 19.3333H13.6667V22.4444H10.5556V19.3333ZM18.3333 19.3333H21.4444V22.4444H18.3333V19.3333Z" fill="#0658FD"/>
</svg>