<svg width="15" height="15" viewBox="0 0 15 15" fill="none" xmlns="http://www.w3.org/2000/svg">
<path d="M2.22777 13.1228L1.05765 14.2929L0.707107 13.9423L1.86991 12.7795L2.01536 12.6341L2.01636 12.4284L2.03727 8.1086L7.46479 2.6891L9.35975 4.58283L9.7133 4.93615L10.0667 4.58271L11.6737 2.97578L12.0272 2.62222L11.6737 2.26867L10.4627 1.05765L10.8132 0.707107L14.2841 4.17803L13.9336 4.52858L12.7313 3.32633L12.3776 2.97261L12.0241 3.32649L10.4171 4.93488L10.0639 5.28843L10.4173 5.64183L12.3032 7.52771L7.49758 12.3321L6.79313 11.627L5.4328 10.2655L5.7835 9.91484L7.14499 11.2763L7.49854 11.6299L7.85209 11.2763L9.02662 10.1018L9.38001 9.7484L9.02677 9.39485L7.69858 8.0655L8.04913 7.71495L9.37701 9.04399L9.73056 9.39785L10.0843 9.04414L11.2471 7.88131L11.6006 7.52783L11.2472 7.17428L7.81711 3.74274L7.46373 3.38921L7.1101 3.74249L2.67788 8.17033L2.53231 8.31575L2.53127 8.52152L2.51374 11.9779L2.51119 12.4804H3.01373H6.43942H7.34919L6.9259 12.9036L6.92586 12.9037L6.85318 12.9763H2.58132H2.37421L2.22777 13.1228Z" fill="#22b38c" stroke="#22b38c"/>
</svg>
