<svg xmlns="http://www.w3.org/2000/svg" width="171" height="48" viewBox="0 0 171 48" fill="none">
<path d="M24 0.499999C36.9787 0.5 47.5 11.0213 47.5 24C47.5 36.9787 36.9787 47.5 24 47.5C11.0213 47.5 0.499998 36.9787 0.499999 24C0.5 11.0213 11.0213 0.499998 24 0.499999Z" fill="white" stroke="#BFD6D5"/>
<path fill-rule="evenodd" clip-rule="evenodd" d="M22.543 8.57143C22.543 7.76667 23.1954 7.11429 24.0001 7.11429C33.2869 7.11429 40.8858 14.444 40.8858 23.5714C40.8858 32.2966 33.8855 40.3221 24.9442 40.8575C23.5772 40.9394 22.543 39.8257 22.543 38.5714V33C22.543 32.1953 23.1954 31.5429 24.0001 31.5429C24.8049 31.5429 25.4573 32.1953 25.4573 33V37.8886C32.4399 37.0903 37.9715 30.6258 37.9715 23.5714C37.9715 16.1303 31.7553 10.0286 24.0001 10.0286C23.1954 10.0286 22.543 9.37619 22.543 8.57143Z" fill="#22B38C"/>
<path fill-rule="evenodd" clip-rule="evenodd" d="M10.2918 44.0398C9.63861 43.5697 9.49021 42.6591 9.96032 42.0059L12.1469 38.9679C12.7678 38.1052 12.628 36.6799 11.6154 35.6156C8.82725 32.6849 7.11443 28.753 7.11443 24.4285C7.11443 15.4059 14.6095 7.11424 24.0001 7.11424C24.8049 7.11424 25.4573 7.76662 25.4573 8.57138C25.4573 9.37614 24.8049 10.0285 24.0001 10.0285C16.3488 10.0285 10.0287 16.8826 10.0287 24.4285C10.0287 27.9653 11.4259 31.1883 13.7268 33.6068C15.4116 35.3778 16.1774 38.3568 14.5122 40.6703L12.3257 43.7083C11.8555 44.3615 10.9449 44.5099 10.2918 44.0398Z" fill="#22B38C"/>
<path d="M10.7144 45.4285C9.0575 45.4285 7.71436 44.0854 7.71436 42.4285C7.71436 40.7717 9.0575 39.4285 10.7144 39.4285C12.3712 39.4285 13.7144 40.7717 13.7144 42.4285C13.7144 44.0854 12.3712 45.4285 10.7144 45.4285Z" fill="#22B38C"/>
<path fill-rule="evenodd" clip-rule="evenodd" d="M19.0285 20.8392V25.7144C19.0285 28.46 21.2543 30.6858 24 30.6858C26.7456 30.6858 28.9714 28.46 28.9714 25.7144V20.8392C27.265 21.2122 25.9307 22.6316 25.7191 24.43L25.4471 26.7418C25.3608 27.4756 24.7389 28.0287 24 28.0287C23.2611 28.0287 22.6391 27.4756 22.5528 26.7418L22.2808 24.43C22.0693 22.6316 20.735 21.2122 19.0285 20.8392ZM16.1143 19.849C16.1143 18.7332 17.0188 17.8287 18.1346 17.8287C20.5549 17.8287 22.7172 19.0483 24 20.9349C25.2828 19.0483 27.4451 17.8287 29.8653 17.8287C30.9811 17.8287 31.8857 18.7332 31.8857 19.849V25.7144C31.8857 30.0695 28.3551 33.6001 24 33.6001C19.6448 33.6001 16.1143 30.0695 16.1143 25.7144V19.849Z" fill="#FF1744"/>
<path fill-rule="evenodd" clip-rule="evenodd" d="M22.9697 16.1125C23.5388 15.5435 24.4614 15.5435 25.0304 16.1125L28.0304 19.1125L25.9697 21.1733L24.0001 19.2036L22.0304 21.1733L19.9697 19.1125L22.9697 16.1125Z" fill="#FF1744"/>
<path d="M59.6699 22.8028V31.2762C59.6699 31.6142 59.396 31.8881 59.058 31.8881H56.6119C56.274 31.8881 56 31.6142 56 31.2762V16.6119C56 16.274 56.274 16 56.6119 16H58.612C58.7996 16 58.9768 16.086 59.0928 16.2334L66.2713 25.3538V16.6119C66.2713 16.274 66.5453 16 66.8832 16H69.3294C69.6673 16 69.9413 16.274 69.9413 16.6119V31.2762C69.9413 31.6142 69.6673 31.8881 69.3294 31.8881H67.2366C67.0508 31.8881 66.8751 31.8037 66.7589 31.6586L59.6699 22.8028Z" fill="#262B37"/>
<path d="M81.824 29.0909C82.1619 29.0909 82.4358 29.3649 82.4358 29.7028V31.2762C82.4358 31.6142 82.1619 31.8881 81.824 31.8881H73.1568C72.8189 31.8881 72.5449 31.6142 72.5449 31.2762V19.9014C72.5449 19.5635 72.8189 19.2895 73.1568 19.2895H81.6449C81.9829 19.2895 82.2568 19.5635 82.2568 19.9014V21.4748C82.2568 21.8128 81.9829 22.0867 81.6449 22.0867H75.7673V24.1678H80.7275C81.0654 24.1678 81.3393 24.4418 81.3393 24.7797V26.1741C81.3393 26.5121 81.0654 26.786 80.7275 26.786H75.7673V29.0909H81.824Z" fill="#262B37"/>
<path d="M91.1935 29.1357C91.9245 29.1357 92.4989 28.979 92.9166 28.6657C93.3492 28.3375 93.6551 27.9198 93.8341 27.4126C94.0131 26.8904 94.1026 26.3385 94.1026 25.7566V19.9014C94.1026 19.5635 94.3766 19.2895 94.7145 19.2895H96.6907C97.0287 19.2895 97.3026 19.5635 97.3026 19.9014V25.7566C97.3026 26.9203 97.0863 27.972 96.6537 28.9119C96.236 29.8517 95.5721 30.6051 94.6621 31.172C93.767 31.724 92.6108 32 91.1935 32C89.7315 32 88.553 31.7091 87.6579 31.1273C86.7628 30.5455 86.1064 29.7846 85.6886 28.8448C85.2858 27.89 85.0844 26.8606 85.0844 25.7566V19.9014C85.0844 19.5635 85.3584 19.2895 85.6963 19.2895H87.6949C88.0329 19.2895 88.3068 19.5635 88.3068 19.9014V25.7566C88.3068 26.3534 88.3963 26.9054 88.5754 27.4126C88.7693 27.9198 89.0751 28.3375 89.4928 28.6657C89.9106 28.979 90.4775 29.1357 91.1935 29.1357Z" fill="#262B37"/>
<path d="M100.216 31.8881C99.8783 31.8881 99.6044 31.6142 99.6044 31.2762V19.9014C99.6044 19.5635 99.8783 19.2895 100.216 19.2895H105.937C106.817 19.2895 107.601 19.5058 108.287 19.9385C108.988 20.3562 109.533 20.8932 109.92 21.5497C110.323 22.2061 110.525 22.8923 110.525 23.6084C110.525 24.3543 110.316 25.0555 109.898 25.7119C109.48 26.3534 108.921 26.8606 108.22 27.2336L110.794 30.9263C111.077 31.332 110.787 31.8881 110.292 31.8881H107.817L104.997 27.9496H102.827V31.2762C102.827 31.6142 102.553 31.8881 102.215 31.8881H100.216ZM102.827 25.1301H105.825C106.228 25.1301 106.564 24.9958 106.832 24.7273C107.116 24.4438 107.258 24.0709 107.258 23.6084C107.258 23.131 107.093 22.758 106.765 22.4895C106.452 22.221 106.101 22.0867 105.713 22.0867H102.827V25.1301Z" fill="#262B37"/>
<path d="M119.564 32C118.564 32 117.654 31.821 116.834 31.4629C116.028 31.1049 115.327 30.62 114.73 30.0084C114.133 29.3967 113.671 28.7105 113.343 27.9496C113.029 27.1739 112.873 26.3832 112.873 25.5776C112.873 24.7422 113.037 23.9441 113.365 23.1832C113.708 22.4224 114.186 21.7436 114.797 21.1469C115.409 20.5501 116.125 20.0802 116.945 19.7371C117.766 19.3939 118.661 19.2224 119.631 19.2224C120.63 19.2224 121.54 19.4089 122.361 19.7818C123.181 20.1399 123.883 20.6247 124.464 21.2364C125.061 21.848 125.516 22.5343 125.829 23.2951C126.143 24.0559 126.299 24.8392 126.299 25.6448C126.299 26.4653 126.135 27.2559 125.807 28.0168C125.479 28.7776 125.009 29.4564 124.397 30.0531C123.8 30.6499 123.092 31.1273 122.271 31.4853C121.451 31.8284 120.548 32 119.564 32ZM116.14 25.6C116.14 26.1967 116.274 26.7711 116.543 27.3231C116.811 27.8601 117.199 28.3002 117.706 28.6434C118.228 28.9716 118.862 29.1357 119.608 29.1357C120.369 29.1357 121.003 28.9641 121.51 28.621C122.018 28.2629 122.398 27.8154 122.652 27.2783C122.905 26.7263 123.032 26.1594 123.032 25.5776C123.032 24.966 122.898 24.3991 122.629 23.8769C122.361 23.3399 121.966 22.9072 121.443 22.579C120.936 22.2508 120.317 22.0867 119.586 22.0867C118.825 22.0867 118.191 22.2583 117.684 22.6014C117.177 22.9445 116.789 23.3846 116.52 23.9217C116.267 24.4587 116.14 25.0182 116.14 25.6Z" fill="#262B37"/>
<path d="M134.994 16.4123C135.08 16.1656 135.312 16 135.573 16H138.661C138.922 16 139.155 16.1659 139.24 16.413L144.279 31.0774C144.416 31.4746 144.12 31.8881 143.7 31.8881H141.234C140.973 31.8881 140.741 31.7228 140.656 31.4763L139.567 28.3301H134.622L133.555 31.473C133.47 31.7212 133.237 31.8881 132.975 31.8881H130.513C130.092 31.8881 129.797 31.474 129.934 31.0766L134.994 16.4123ZM138.963 25.8014L137.106 19.6923L135.204 25.8014H138.963Z" fill="#262B37"/>
<path d="M147.299 31.8881C146.961 31.8881 146.687 31.6142 146.687 31.2762V19.9014C146.687 19.5635 146.961 19.2895 147.299 19.2895H152.685C153.58 19.2895 154.37 19.5058 155.057 19.9385C155.758 20.3562 156.302 20.8932 156.69 21.5497C157.093 22.2061 157.294 22.8923 157.294 23.6084C157.294 24.3394 157.101 25.0406 156.713 25.7119C156.34 26.3683 155.817 26.9054 155.146 27.3231C154.475 27.7408 153.692 27.9496 152.797 27.9496H149.91V31.2762C149.91 31.6142 149.636 31.8881 149.298 31.8881H147.299ZM149.91 25.1301H152.595C152.983 25.1301 153.319 25.0107 153.602 24.772C153.886 24.5333 154.027 24.1455 154.027 23.6084C154.027 23.0564 153.863 22.6685 153.535 22.4448C153.207 22.2061 152.856 22.0867 152.483 22.0867H149.91V25.1301Z" fill="#262B37"/>
<path d="M160.433 31.8881C160.095 31.8881 159.821 31.6142 159.821 31.2762V19.9014C159.821 19.5635 160.095 19.2895 160.433 19.2895H165.818C166.713 19.2895 167.504 19.5058 168.19 19.9385C168.892 20.3562 169.436 20.8932 169.824 21.5497C170.227 22.2061 170.428 22.8923 170.428 23.6084C170.428 24.3394 170.234 25.0406 169.846 25.7119C169.473 26.3683 168.951 26.9054 168.28 27.3231C167.609 27.7408 166.825 27.9496 165.93 27.9496H163.044V31.2762C163.044 31.6142 162.77 31.8881 162.432 31.8881H160.433ZM163.044 25.1301H165.729C166.117 25.1301 166.452 25.0107 166.736 24.772C167.019 24.5333 167.161 24.1455 167.161 23.6084C167.161 23.0564 166.997 22.6685 166.669 22.4448C166.341 22.2061 165.99 22.0867 165.617 22.0867H163.044V25.1301Z" fill="#262B37"/>
</svg>