<svg xmlns="http://www.w3.org/2000/svg" width="48" height="48" viewBox="0 0 48 48" fill="none">
<path d="M10.1112 24.1115L10.1113 24.1114L18.1112 16.1115C18.1113 16.1114 18.1113 16.1114 18.1113 16.1114C19.1806 15.0427 20.5886 14.5078 22 14.5078C23.4113 14.5078 24.8193 15.0427 25.8886 16.1114C28.028 18.2508 28.0276 21.7496 25.8886 23.8886L25.7422 24.0351V24.037L17.8886 31.8886L17.8886 31.8886C16.8189 32.9584 15.4066 33.5 14 33.5C12.6308 33.5 11.2571 32.9882 10.1978 31.9751L10.1113 31.8886C7.97143 29.7487 7.9713 26.2503 10.1112 24.1115ZM25.1816 16.8183L25.1816 16.8182C24.2997 15.9368 23.1503 15.4941 22 15.4941C20.8496 15.4941 19.7002 15.9368 18.8184 16.8182L18.8183 16.8183L15.5253 20.1113L15.1718 20.4648L15.5253 20.8184L21.1816 26.4746L21.5351 26.8282L21.8887 26.4746L25.1816 23.1818C25.1816 23.1817 25.1816 23.1817 25.1816 23.1817C26.9476 21.4166 26.9478 18.5844 25.1816 16.8183ZM14.8184 21.5254L14.4648 21.1718L14.1113 21.5254L10.8184 24.8182C10.8183 24.8183 10.8183 24.8183 10.8183 24.8183C9.05236 26.5834 9.05218 29.4156 10.8183 31.1817L10.8186 31.182C11.7019 32.0637 12.8473 32.5 14 32.5C15.1529 32.5 16.2991 32.0643 17.1816 31.1817L20.4746 27.8887L20.8282 27.5352L20.4746 27.1816L14.8184 21.5254Z" fill="#22B38C" stroke="#22B38C"/>
</svg>