<svg xmlns="http://www.w3.org/2000/svg" width="200" height="160" viewBox="0 0 200 160" fill="none">
<path d="M81.9832 159.649C81.7867 159.649 81.6323 159.495 81.6323 159.299V133.293C81.6323 133.097 81.7867 132.942 81.9832 132.942H120.058C120.255 132.942 120.409 133.097 120.409 133.293V159.285C120.409 159.481 120.255 159.635 120.058 159.635H81.9832V159.649Z" fill="url(#paint0_linear_1509_3449)"/>
<path d="M77.3938 159.649C77.1973 159.649 77.043 159.494 77.043 159.298V153.782C77.043 153.586 77.1973 153.432 77.3938 153.432H124.633C124.83 153.432 124.984 153.586 124.984 153.782V159.298C124.984 159.494 124.83 159.649 124.633 159.649H77.3938Z" fill="url(#paint1_linear_1509_3449)"/>
<rect x="26" y="32" width="150" height="110" rx="10" fill="url(#paint2_linear_1509_3449)"/>
<rect x="37" y="43" width="128" height="81" rx="6" fill="white" fill-opacity="0.2"/>
<g filter="url(#filter0_b_1509_3449)">
<path d="M193.966 126.827L188.027 123.234C187.523 122.937 187.255 122.373 187.315 121.809C187.374 121.067 187.404 120.324 187.404 119.582C187.404 118.187 187.315 116.821 187.107 115.514C187.018 114.891 187.285 114.267 187.82 113.97L194.025 110.229C194.679 109.843 194.946 108.982 194.59 108.269L191.68 102.331C191.353 101.648 190.581 101.351 189.868 101.588L183.603 103.875C183.009 104.112 182.297 103.904 181.911 103.37C180.189 101.143 178.11 99.1834 175.735 97.58C175.171 97.194 174.933 96.4517 175.171 95.7984L176.566 91.9681C176.833 91.2555 176.507 90.4241 175.794 90.0678L169.885 87.1876C169.767 87.1282 169.648 87.0689 169.529 87.0689C168.935 86.9501 168.282 87.2173 167.955 87.7518L165.283 92.176L164.63 93.2449C163.412 93.0667 162.165 92.9777 160.889 92.9777C159.196 92.9777 157.504 93.1261 155.9 93.4527C155.277 93.5715 154.653 93.3043 154.356 92.7698L151.328 87.7518C150.912 87.0689 150.051 86.8016 149.338 87.1579L144.795 89.3849L143.489 90.0381C142.776 90.3944 142.45 91.2258 142.717 91.9681L144.617 97.2237C144.855 97.8175 144.677 98.5004 144.172 98.9161C142.687 100.134 141.351 101.47 140.163 102.954C140.044 103.073 139.955 103.192 139.866 103.311C139.837 103.37 139.807 103.4 139.748 103.429C139.332 103.875 138.679 104.023 138.114 103.815L131.909 101.559C131.849 101.529 131.76 101.499 131.701 101.499C131.048 101.351 130.335 101.707 130.038 102.331L127.158 108.21C126.802 108.922 127.069 109.784 127.752 110.199L133.958 113.94C134.492 114.237 134.759 114.861 134.67 115.455C134.462 116.791 134.373 118.157 134.373 119.552C134.373 120.295 134.403 121.037 134.462 121.75C134.522 122.343 134.225 122.908 133.72 123.205L127.752 126.797C127.099 127.183 126.831 128.044 127.188 128.727L130.097 134.606C130.454 135.319 131.285 135.646 132.028 135.378L136.986 133.567C137.639 133.33 138.382 133.567 138.768 134.161C140.282 136.477 142.182 138.526 144.32 140.248C144.825 140.664 145.033 141.347 144.795 141.97L142.776 147.552C142.509 148.295 142.836 149.126 143.548 149.482L149.427 152.362C150.14 152.719 151.001 152.452 151.387 151.798L151.535 151.531L154.653 146.365C154.98 145.8 155.603 145.533 156.257 145.652C157.771 145.919 159.345 146.068 160.948 146.068C161.809 146.068 162.64 146.008 163.472 145.949C164.066 145.89 164.63 146.157 164.927 146.662L167.985 151.739C168.401 152.422 169.292 152.689 170.004 152.333L175.854 149.453C176.032 149.364 176.151 149.245 176.299 149.126C176.685 148.71 176.833 148.116 176.626 147.552L175.082 143.366C174.903 142.861 174.993 142.267 175.349 141.881C175.438 141.762 175.557 141.673 175.675 141.584C178.615 139.624 181.139 137.071 183.099 134.131C183.425 133.627 184.019 133.389 184.613 133.478C184.702 133.508 184.791 133.508 184.85 133.537L189.868 135.349C190.581 135.616 191.412 135.289 191.769 134.577L191.828 134.428L194.649 128.698C194.916 128.104 194.649 127.243 193.966 126.827ZM147.022 115.485C147.319 114.475 147.705 113.436 148.21 112.396C149.19 110.407 151.625 107.972 153.614 106.992C153.822 106.874 154.03 106.785 154.237 106.696C167.213 100.876 179.743 113.614 173.448 126.589C172.617 128.282 170.806 130.271 169.024 131.518C168.609 131.786 168.193 132.053 167.807 132.231C165.996 133.122 164.184 133.627 162.433 133.834C152.456 134.933 144.201 125.728 147.022 115.485Z" fill="white" fill-opacity="0.37"/>
</g>
<g filter="url(#filter1_b_1509_3449)">
<path d="M57.0373 41.1838L51.8903 38.8045C51.4533 38.6103 51.1862 38.1732 51.1619 37.712C51.1376 37.105 51.1134 36.498 51.0405 35.8911C50.9191 34.75 50.7249 33.6574 50.4336 32.5892C50.2879 32.1036 50.4821 31.5695 50.8706 31.2539L55.5806 27.6607C56.0904 27.2722 56.2118 26.5681 55.8719 26.034L53.0071 21.4454C52.6672 20.9355 52.0117 20.7413 51.4533 21.0084L46.549 23.4119C46.0877 23.6547 45.5051 23.5576 45.1166 23.1449C43.5142 21.4697 41.6448 20.0858 39.6054 18.9933C39.1198 18.7262 38.8528 18.1435 38.9984 17.6094L39.7996 14.3804C39.9453 13.7734 39.6054 13.1179 39.0227 12.8994L33.9485 11.0785C33.8514 11.0299 33.7543 11.0056 33.6329 11.0056C33.123 10.9571 32.6375 11.2242 32.419 11.7097L30.6224 15.5457L30.1854 16.4926C29.1899 16.4683 28.146 16.4926 27.1263 16.614C25.7424 16.7596 24.3828 17.051 23.1203 17.4394C22.6347 17.5851 22.1006 17.4152 21.8093 17.0267L18.8959 13.1907C18.5074 12.6809 17.7791 12.5352 17.2207 12.8994L13.7246 15.1087L12.7291 15.7399C12.1707 16.0798 11.9765 16.7839 12.2679 17.3666L14.283 21.4697C14.5258 21.931 14.4286 22.5136 14.0645 22.8778C12.9719 23.9946 12.0008 25.2085 11.1753 26.5196C11.1025 26.6167 11.0297 26.7381 10.9568 26.8595C10.9325 26.908 10.9083 26.9323 10.884 26.9566C10.5926 27.345 10.0828 27.5393 9.59723 27.4179L4.35308 26.1311C4.30453 26.1068 4.23169 26.1068 4.18313 26.1068C3.62473 26.0583 3.09061 26.3982 2.89638 26.908L1.07549 31.958C0.856989 32.5649 1.12405 33.2447 1.73102 33.5118L7.09655 35.9882C7.55784 36.1824 7.8249 36.668 7.80063 37.1535C7.75207 38.2461 7.77635 39.3872 7.92202 40.5283C7.99485 41.1352 8.06768 41.7179 8.18907 42.3006C8.28619 42.7861 8.09196 43.2717 7.70351 43.5631L3.16344 47.0106C2.65359 47.3991 2.5322 48.1031 2.8721 48.6373L5.73696 53.1531C6.07686 53.7115 6.78093 53.9057 7.36361 53.6143L11.2482 51.7206C11.758 51.4536 12.3892 51.5992 12.7534 52.0362C14.1859 53.7843 15.9096 55.2896 17.8033 56.5035C18.2646 56.7948 18.4831 57.3289 18.3375 57.8631L17.1721 62.5974C17.0264 63.2286 17.3663 63.8841 17.9733 64.1026L22.9989 65.9235C23.6059 66.142 24.2857 65.8507 24.5285 65.2923L24.6256 65.0738L26.7135 60.6065C26.932 60.121 27.4176 59.8539 27.9517 59.8782C29.2142 59.9753 30.501 59.951 31.812 59.8054C32.5161 59.7325 33.1959 59.6111 33.8757 59.4897C34.337 59.3926 34.8225 59.5626 35.1139 59.951L38.0516 63.8113C38.44 64.3454 39.1926 64.4668 39.751 64.1269L44.2668 61.2621C44.3882 61.1892 44.5096 61.0678 44.5825 60.9707C44.8495 60.6065 44.9224 60.0967 44.7039 59.6597L43.1015 56.3821C42.9072 55.9694 42.9558 55.5081 43.1743 55.1439C43.2472 55.0468 43.32 54.9497 43.4171 54.8768C45.6507 53.0074 47.4716 50.7252 48.8069 48.1517C49.0254 47.7147 49.4867 47.4719 49.9723 47.4962C50.0451 47.4962 50.1179 47.5205 50.1908 47.5205L54.4395 48.5644C55.0465 48.7101 55.6777 48.3702 55.8962 47.7875L55.9448 47.6661L57.7414 42.7619C57.9356 42.1306 57.6443 41.4508 57.0373 41.1838ZM17.9005 36.1096C18.0461 35.2598 18.2646 34.3858 18.6045 33.4875C19.2358 31.788 20.9838 29.6029 22.5134 28.6318C22.6833 28.5347 22.829 28.4376 22.9989 28.3405C33.0259 22.4651 44.3397 31.7152 40.358 42.8347C39.8482 44.2914 38.5371 46.0637 37.2018 47.2291C36.8862 47.4962 36.5706 47.739 36.2792 47.9089C34.8954 48.7829 33.4629 49.3656 32.0548 49.6812C24.0186 51.4293 16.4923 44.6799 17.9005 36.1096Z" fill="#EDEDED" fill-opacity="0.37"/>
</g>
<defs>
<filter id="filter0_b_1509_3449" x="97" y="57" width="127.751" height="125.521" filterUnits="userSpaceOnUse" color-interpolation-filters="sRGB">
<feFlood flood-opacity="0" result="BackgroundImageFix"/>
<feGaussianBlur in="BackgroundImage" stdDeviation="15"/>
<feComposite in2="SourceAlpha" operator="in" result="effect1_backgroundBlur_1509_3449"/>
<feBlend mode="normal" in="SourceGraphic" in2="effect1_backgroundBlur_1509_3449" result="shape"/>
</filter>
<filter id="filter1_b_1509_3449" x="-24" y="-14" width="106.801" height="104.996" filterUnits="userSpaceOnUse" color-interpolation-filters="sRGB">
<feFlood flood-opacity="0" result="BackgroundImageFix"/>
<feGaussianBlur in="BackgroundImage" stdDeviation="12.5"/>
<feComposite in2="SourceAlpha" operator="in" result="effect1_backgroundBlur_1509_3449"/>
<feBlend mode="normal" in="SourceGraphic" in2="effect1_backgroundBlur_1509_3449" result="shape"/>
</filter>
<linearGradient id="paint0_linear_1509_3449" x1="96" y1="136.5" x2="105.296" y2="153.842" gradientUnits="userSpaceOnUse">
<stop stop-color="#22B38C"/>
<stop offset="1" stop-color="#79E2B1"/>
</linearGradient>
<linearGradient id="paint1_linear_1509_3449" x1="101" y1="129.5" x2="122.998" y2="157.2" gradientUnits="userSpaceOnUse">
<stop stop-color="#22B38C"/>
<stop offset="1" stop-color="#79E2B1"/>
</linearGradient>
<linearGradient id="paint2_linear_1509_3449" x1="30.5" y1="36.4" x2="103.91" y2="123.631" gradientUnits="userSpaceOnUse">
<stop stop-color="#22B38C"/>
<stop offset="1" stop-color="#79E2B1"/>
</linearGradient>
</defs>
</svg>