<svg xmlns="http://www.w3.org/2000/svg" width="22" height="22" viewBox="0 0 22 22" fill="none">
<path d="M18.5418 0.333328H3.4585C1.73551 0.333328 0.333496 1.73535 0.333496 3.45833V18.5417C0.333496 20.2646 1.73551 21.6667 3.4585 21.6667H18.5418C20.2648 21.6667 21.6668 20.2646 21.6668 18.5417V3.45833C21.6668 1.73535 20.2648 0.333328 18.5418 0.333328ZM11.0418 16.5833C7.9401 16.5833 5.41683 14.0601 5.41683 10.9583C5.41683 7.8566 7.9401 5.33333 11.0418 5.33333C14.1436 5.33333 16.6668 7.8566 16.6668 10.9583C16.6668 14.0601 14.1436 16.5833 11.0418 16.5833ZM17.2918 6.58333C16.258 6.58333 15.4168 5.74218 15.4168 4.70833C15.4168 3.67447 16.258 2.83333 17.2918 2.83333C18.3257 2.83333 19.1668 3.67447 19.1668 4.70833C19.1668 5.74218 18.3257 6.58333 17.2918 6.58333Z" fill="white"/>
<path d="M11 7C8.79464 7 7 8.79464 7 11C7 13.2054 8.79464 15 11 15C13.2054 15 15 13.2054 15 11C15 8.79464 13.2054 7 11 7Z" fill="white"/>
</svg>