<svg xmlns="http://www.w3.org/2000/svg" width="48" height="48" viewBox="0 0 48 48" fill="none">
<path fill-rule="evenodd" clip-rule="evenodd" d="M11.7349 16.4487C11.7228 16.4709 11.7109 16.4932 11.6992 16.5156L11.6699 16.5C11.6151 16.5949 11.5638 16.6911 11.5163 16.788C11.4535 16.9162 11.3969 17.0459 11.3465 17.177C11.3161 17.2561 11.2878 17.3357 11.2618 17.4157C11.003 18.2119 10.962 19.047 11.1016 19.8477C9.27549 20.8728 8 22.7627 8 25C8 26.8198 8.88649 28.388 10.166 29.4844C10.6409 32.0321 12.8175 34 15.5 34C16.4221 34 17.2346 33.644 18 33.2402C18.7654 33.644 19.5779 34 20.5 34C23.1825 34 25.3591 32.0321 25.834 29.4844C27.1135 28.388 28 26.8198 28 25C28 22.7621 26.7242 20.8697 24.8984 19.8438C24.9375 19.6189 24.9703 19.3949 24.9785 19.166C24.9809 19.1461 24.9843 19.1268 24.9877 19.1075C24.9939 19.0727 25 19.0379 25 19C25 18.7935 24.9836 18.5908 24.959 18.3906C24.9583 18.3849 24.9572 18.3793 24.956 18.3737C24.9549 18.3683 24.9538 18.3629 24.9531 18.3574C24.9249 18.1407 24.8692 17.935 24.8132 17.7281L24.8086 17.7109C24.8055 17.6993 24.8024 17.6877 24.7993 17.6761C24.7775 17.5938 24.7557 17.5115 24.7319 17.4296C24.6982 17.3133 24.6605 17.1978 24.6133 17.084C24.6108 17.0781 24.6087 17.072 24.6067 17.0659C24.6045 17.0595 24.6023 17.0531 24.5996 17.0469C24.5619 16.9581 24.5223 16.8701 24.4798 16.7828C24.4337 16.6879 24.3843 16.5939 24.3306 16.5009L24.3301 16.5L24.3086 16.5137L24.308 16.5127C24.2385 16.3932 24.1643 16.2766 24.0857 16.1634C23.1826 14.8633 21.6938 14 20 14C19.2908 14 18.6793 14.2656 18.0801 14.5293C16.2328 13.6733 13.9843 13.9454 12.4648 15.4648C12.1633 15.7664 11.9253 16.0984 11.7349 16.4487ZM22.6465 17.6055C22.1467 16.6519 21.1605 16 20 16C19.6469 16 19.3179 16.0856 19 16.2051V25.002C18.9987 26.1156 19.8792 26.9987 20.9922 27L20.9902 29C20.6474 28.9996 20.3162 28.9519 20 28.8655C19.9968 28.8647 19.9936 28.8638 19.9904 28.8629C19.6399 28.7661 19.3081 28.6218 19 28.4414V31.6621C19.4542 31.8788 19.9603 32 20.5 32C22.3036 32 23.7504 30.6522 23.9551 28.9043L24.0059 28.4727L24.3555 28.2148C25.3519 27.4824 26 26.3271 26 25C26 23.9642 25.6038 23.0347 24.9585 22.3333C24.731 22.0859 24.4725 21.8669 24.1895 21.6816C24.162 21.7248 24.134 21.7677 24.1053 21.8101C23.8794 22.1451 23.6158 22.4576 23.3114 22.7355C23.0678 22.9578 22.7981 23.1579 22.5007 23.3297L21.5 21.5977C22.0366 21.2879 22.4416 20.8421 22.6953 20.3301L22.8125 19.998C22.8716 19.832 22.9173 19.6677 22.9492 19.5039C22.9496 19.5019 22.9508 19.5001 22.9512 19.498C22.979 19.3537 22.9903 19.2095 22.9941 19.0645C22.9951 19.0174 22.9927 18.9704 22.9904 18.9233C22.9897 18.9086 22.9889 18.8937 22.9883 18.8789C22.9831 18.7495 22.97 18.6226 22.9492 18.498C22.9333 18.4066 22.9134 18.3153 22.8887 18.2246C22.8651 18.1356 22.8379 18.0483 22.8066 17.9629C22.7615 17.8421 22.7083 17.7226 22.6465 17.6055ZM11.9941 28.4727L12.0449 28.9043C12.2496 30.6522 13.6964 32 15.5 32C16.0397 32 16.5458 31.8788 17 31.6621V25.4375C16.6902 25.6196 16.3565 25.7653 16.0038 25.8627L16 25.8638C15.6821 25.9513 15.3488 25.9996 15.0039 26L15.002 24C16.1132 23.9987 16.9928 23.1183 16.9941 22.0071V22.002H17V16.1895C16.7107 16.0851 16.4098 16.023 16.1074 16.0098C15.3061 15.9746 14.4969 16.2609 13.8789 16.8789C13.6805 17.0773 13.5188 17.2976 13.3887 17.5293C13.3023 17.6825 13.2331 17.8402 13.1758 18C13.1528 18.066 13.1355 18.1333 13.118 18.2006C13.1158 18.2093 13.1136 18.2179 13.1113 18.2266C13.0914 18.2997 13.0767 18.3735 13.0625 18.4473C12.9699 18.9625 13.0081 19.4983 13.1855 20L13.2969 20.3164C13.5502 20.8337 13.9585 21.285 14.4995 21.5974L13.5 23.3301C13.2026 23.1584 12.9322 22.9578 12.6886 22.7355C12.3849 22.4583 12.1218 22.1466 11.8963 21.8125C11.8671 21.7692 11.8385 21.7256 11.8105 21.6816C11.5275 21.867 11.269 22.086 11.0415 22.3333C10.3961 23.0348 10 23.964 10 25C10 26.3271 10.6481 27.4824 11.6445 28.2148L11.9941 28.4727Z" fill="#22B38C"/>
</svg>