<svg xmlns="http://www.w3.org/2000/svg" width="152" height="118" viewBox="0 0 152 118" fill="none">
<path d="M21.5312 89.7972C21.8102 88.2349 21.1308 86.6653 19.8537 85.7232C7.67312 76.7374 0.000190735 63.6406 0.000190735 49.0577C0.000190735 21.9639 26.4861 0 59.1581 0C91.83 0 118.316 21.9639 118.316 49.0577C118.316 76.1516 91.83 98.1155 59.1581 98.1155C52.4592 98.1155 46.0204 97.1921 40.0167 95.4906C38.3936 95.0306 36.6474 95.1923 35.1797 96.024L21.4291 103.816C20.3662 104.418 19.0826 103.51 19.2974 102.307L21.5312 89.7972Z" fill="url(#paint0_linear_1072_3170)"/>
<g filter="url(#filter0_b_1072_3170)">
<path d="M133.869 105.755C133.59 104.193 134.271 102.625 135.54 101.673C145.649 94.0842 152 83.1161 152 70.9179C152 48.0138 129.61 29.4464 101.99 29.4464C74.3706 29.4464 51.9805 48.0138 51.9805 70.9179C51.9805 93.822 74.3706 112.389 101.99 112.389C107.823 112.389 113.422 111.561 118.626 110.039C119.706 109.724 120.87 109.834 121.849 110.388L133.885 117.208C134.783 117.718 135.868 116.949 135.687 115.933L133.869 105.755Z" fill="#EDEDED" fill-opacity="0.37"/>
<path fill-rule="evenodd" clip-rule="evenodd" d="M84.2133 78.8992C79.6832 78.8992 75.999 75.2268 75.999 70.6967C75.999 66.1666 79.6832 62.4942 84.2133 62.4942C88.7434 62.4942 92.4275 66.1666 92.4275 70.6967C92.4275 75.2268 88.7434 78.8992 84.2133 78.8992ZM120.356 78.8991C115.826 78.8991 112.142 75.2268 112.142 70.6967C112.142 66.1666 115.826 62.4942 120.356 62.4942C124.886 62.4942 128.571 66.1666 128.571 70.6967C128.571 75.2268 124.886 78.8991 120.356 78.8991Z" fill="white"/>
</g>
<defs>
<filter id="filter0_b_1072_3170" x="26.9805" y="4.44641" width="150.02" height="137.923" filterUnits="userSpaceOnUse" color-interpolation-filters="sRGB">
<feFlood flood-opacity="0" result="BackgroundImageFix"/>
<feGaussianBlur in="BackgroundImage" stdDeviation="12.5"/>
<feComposite in2="SourceAlpha" operator="in" result="effect1_backgroundBlur_1072_3170"/>
<feBlend mode="normal" in="SourceGraphic" in2="effect1_backgroundBlur_1072_3170" result="shape"/>
</filter>
<linearGradient id="paint0_linear_1072_3170" x1="118.316" y1="48.5366" x2="2.83655" y2="49.1228" gradientUnits="userSpaceOnUse">
<stop stop-color="#53D769"/>
<stop offset="1" stop-color="#79E2B1" stop-opacity="0.65"/>
</linearGradient>
</defs>
</svg>