<svg xmlns="http://www.w3.org/2000/svg" width="48" height="48" viewBox="0 0 48 48" fill="none">
<g clip-path="url(#clip0_927_6337)">
<path d="M27.9453 23.3674C27.9488 24.6873 27.6404 25.9893 27.0453 27.1674C26.3397 28.5792 25.2551 29.7666 23.9128 30.5967C22.5705 31.4268 21.0236 31.8668 19.4453 31.8674C18.1254 31.8709 16.8234 31.5625 15.6453 30.9674L9.94531 32.8674L11.8453 27.1674C11.2502 25.9893 10.9419 24.6873 10.9453 23.3674C10.9459 21.7892 11.3859 20.2423 12.216 18.9C13.0461 17.5577 14.2336 16.473 15.6453 15.7674C16.8234 15.1724 18.1254 14.864 19.4453 14.8674H19.9453C22.0297 14.9824 23.9984 15.8622 25.4745 17.3383C26.9506 18.8144 27.8303 20.7831 27.9453 22.8674V23.3674Z" stroke="#22B38C" stroke-width="2" stroke-linecap="round" stroke-linejoin="round"/>
</g>
<defs>
<clipPath id="clip0_927_6337">
<rect width="24" height="24" fill="white" transform="translate(6 12)"/>
</clipPath>
</defs>
</svg>