<svg xmlns="http://www.w3.org/2000/svg" width="14" height="22" viewBox="0 0 14 22" fill="none">
<g clip-path="url(#clip0_927_8324)">
<path d="M13.0354 11.8155C12.7208 11.1838 11.8501 10.6584 10.6931 11.5703C9.12921 12.8025 6.61692 12.8025 6.61692 12.8025C6.61692 12.8025 4.10462 12.8025 2.54072 11.5703C1.38369 10.6584 0.513015 11.1838 0.198407 11.8155C-0.349768 12.9164 0.269474 13.4484 1.66713 14.3452C2.86073 15.1116 4.50069 15.3979 5.55963 15.5047L4.67565 16.3887C3.43052 17.6339 2.22861 18.8362 1.3945 19.6703C0.895782 20.1686 0.895782 20.9769 1.3945 21.4756L1.54495 21.6261C2.04367 22.1248 2.85201 22.1244 3.35031 21.6261L6.63146 18.3449C7.87701 19.5901 9.07892 20.792 9.91262 21.6261C10.4113 22.1244 11.2197 22.1244 11.7184 21.6261L11.8688 21.4756C12.3676 20.9769 12.3671 20.1686 11.8688 19.6699L8.58769 16.3887L7.7008 15.5022C8.76058 15.3929 10.3831 15.1054 11.5667 14.3452C12.9639 13.4484 13.5832 12.9164 13.0354 11.8155ZM6.61692 2.82856C8.1297 2.82856 9.35613 4.055 9.35613 5.56778C9.35613 7.08097 8.1297 8.30699 6.61692 8.30699C5.10414 8.30699 3.8777 7.08097 3.8777 5.56778C3.8777 4.055 5.10414 2.82856 6.61692 2.82856ZM6.61692 11.136C9.69193 11.136 12.1851 8.64279 12.1851 5.56778C12.1851 2.49276 9.69193 0 6.61692 0C3.54148 0 1.04872 2.49276 1.04872 5.56778C1.04872 8.64279 3.54148 11.136 6.61692 11.136Z" fill="white"/>
</g>
<defs>
<clipPath id="clip0_927_8324">
<rect width="13.2332" height="22" fill="white"/>
</clipPath>
</defs>
</svg>