<svg width="13" height="15" viewBox="0 0 13 15" fill="none" xmlns="http://www.w3.org/2000/svg">
<path d="M12.0663 7.8288L12.0668 7.82955C12.1117 7.89983 12.0845 7.99912 12.0021 8.03544L11.0066 8.4529L10.7 8.58149V8.914V11C10.7 11.4974 10.2974 11.9 9.8 11.9H8.4H7.9V12.4V14H2.6V12.5666C2.6 11.6699 2.45952 10.9997 2.23587 10.4426C2.02169 9.90917 1.73782 9.49951 1.48464 9.13413C1.47675 9.12274 1.46888 9.11139 1.46106 9.10009C1.19825 8.72059 0.967478 8.3805 0.794278 7.93403C0.622889 7.49223 0.5 6.92309 0.5 6.1C0.5 3.28354 2.78354 1 5.6 1C8.22692 1 10.3887 2.98437 10.6673 5.53615L10.6799 5.65211L10.7426 5.7505L12.0663 7.8288ZM7.5 13.1V11.5H9.8H10.3V11V8.31847L10.8487 8.08743L10.8501 8.08681L11.0181 8.01673L11.5667 7.78777L11.2471 7.28652L10.405 5.96562L10.4047 5.96506L10.2927 5.78991L10.2698 5.58097C10.2697 5.58088 10.2697 5.58078 10.2697 5.58069C10.0094 3.19602 7.99809 1.4 5.6 1.4C3.00756 1.4 0.9 3.50756 0.9 6.1C0.9 6.81 0.991304 7.3305 1.16331 7.77748C1.32968 8.20983 1.56315 8.5472 1.79192 8.87777L1.80363 8.8947L1.80432 8.89569C2.09127 9.30828 2.38227 9.73039 2.60849 10.2952C2.83292 10.8556 3 11.5749 3 12.5666V13.1V13.6H3.5H7H7.5V13.1Z" fill="#22b38c" stroke="#22b38c"/>
</svg>
