<svg xmlns="http://www.w3.org/2000/svg" width="48" height="48" viewBox="0 0 48 48" fill="none">
<path d="M22 16H24C24.5304 16 25.0391 16.199 25.4142 16.5532C25.7893 16.9075 26 17.3879 26 17.8889V31.1111C26 31.6121 25.7893 32.0925 25.4142 32.4468C25.0391 32.801 24.5304 33 24 33H12C11.4696 33 10.9609 32.801 10.5858 32.4468C10.2107 32.0925 10 31.6121 10 31.1111V17.8889C10 17.3879 10.2107 16.9075 10.5858 16.5532C10.9609 16.199 11.4696 16 12 16H14" stroke="#22B38C" stroke-width="2" stroke-linecap="round" stroke-linejoin="round"/>
<path d="M21 14H15C14.4477 14 14 14.4477 14 15V17C14 17.5523 14.4477 18 15 18H21C21.5523 18 22 17.5523 22 17V15C22 14.4477 21.5523 14 21 14Z" stroke="#22B38C" stroke-width="2" stroke-linecap="round" stroke-linejoin="round"/>
</svg>