<svg xmlns="http://www.w3.org/2000/svg" width="48" height="48" viewBox="0 0 48 48" fill="none">
<circle cx="24" cy="24" r="24" fill="#6862E0" fill-opacity="0.2"/>
<path d="M33.9453 23.3674C33.9488 24.6873 33.6404 25.9893 33.0453 27.1674C32.3397 28.5792 31.2551 29.7666 29.9128 30.5967C28.5705 31.4268 27.0236 31.8668 25.4453 31.8674C24.1254 31.8709 22.8234 31.5625 21.6453 30.9674L15.9453 32.8674L17.8453 27.1674C17.2502 25.9893 16.9419 24.6873 16.9453 23.3674C16.9459 21.7892 17.3859 20.2423 18.216 18.9C19.0461 17.5577 20.2336 16.473 21.6453 15.7674C22.8234 15.1724 24.1254 14.864 25.4453 14.8674H25.9453C28.0297 14.9824 29.9984 15.8622 31.4745 17.3383C32.9506 18.8144 33.8303 20.7831 33.9453 22.8674V23.3674Z" stroke="#6862E0" stroke-width="2" stroke-linecap="round" stroke-linejoin="round"/>
</svg>