<svg xmlns="http://www.w3.org/2000/svg" width="48" height="48" viewBox="0 0 48 48" fill="none">
<circle cx="24" cy="24" r="24" fill="#53D769" fill-opacity="0.2"/>
<path fill-rule="evenodd" clip-rule="evenodd" d="M17.7349 16.4487C17.7228 16.4709 17.7109 16.4932 17.6992 16.5156L17.6699 16.5C17.6151 16.5949 17.5638 16.6911 17.5163 16.788C17.4535 16.9162 17.3969 17.0459 17.3465 17.177C17.3161 17.2561 17.2878 17.3357 17.2618 17.4157C17.003 18.2119 16.962 19.047 17.1016 19.8477C15.2755 20.8728 14 22.7627 14 25C14 26.8198 14.8865 28.388 16.166 29.4844C16.6409 32.0321 18.8175 34 21.5 34C22.4221 34 23.2346 33.644 24 33.2402C24.7654 33.644 25.5779 34 26.5 34C29.1825 34 31.3591 32.0321 31.834 29.4844C33.1135 28.388 34 26.8198 34 25C34 22.7621 32.7242 20.8697 30.8984 19.8438C30.9375 19.6189 30.9703 19.3949 30.9785 19.166C30.9809 19.1461 30.9843 19.1268 30.9877 19.1075C30.9939 19.0727 31 19.0379 31 19C31 18.7935 30.9836 18.5908 30.959 18.3906C30.9583 18.3849 30.9572 18.3793 30.956 18.3737C30.9549 18.3683 30.9538 18.3629 30.9531 18.3574C30.9249 18.1407 30.8692 17.935 30.8132 17.7281L30.8086 17.7109C30.8055 17.6993 30.8024 17.6877 30.7993 17.6761C30.7775 17.5938 30.7557 17.5115 30.7319 17.4296C30.6982 17.3133 30.6605 17.1978 30.6133 17.084C30.6108 17.0781 30.6087 17.072 30.6067 17.0659C30.6045 17.0595 30.6023 17.0531 30.5996 17.0469C30.5619 16.9581 30.5223 16.8701 30.4798 16.7828C30.4337 16.6879 30.3843 16.5939 30.3306 16.5009L30.3301 16.5L30.3086 16.5137L30.308 16.5127C30.2385 16.3932 30.1643 16.2766 30.0857 16.1634C29.1826 14.8633 27.6938 14 26 14C25.2908 14 24.6793 14.2656 24.0801 14.5293C22.2328 13.6733 19.9843 13.9454 18.4648 15.4648C18.1633 15.7664 17.9253 16.0984 17.7349 16.4487ZM28.6465 17.6055C28.1467 16.6519 27.1605 16 26 16C25.6469 16 25.3179 16.0856 25 16.2051V25.002C24.9987 26.1156 25.8792 26.9987 26.9922 27L26.9902 29C26.6474 28.9996 26.3162 28.9519 26 28.8655C25.9968 28.8647 25.9936 28.8638 25.9904 28.8629C25.6399 28.7661 25.3081 28.6218 25 28.4414V31.6621C25.4542 31.8788 25.9603 32 26.5 32C28.3036 32 29.7504 30.6522 29.9551 28.9043L30.0059 28.4727L30.3555 28.2148C31.3519 27.4824 32 26.3271 32 25C32 23.9642 31.6038 23.0347 30.9585 22.3333C30.731 22.0859 30.4725 21.8669 30.1895 21.6816C30.162 21.7248 30.134 21.7677 30.1053 21.8101C29.8794 22.1451 29.6158 22.4576 29.3114 22.7355C29.0678 22.9578 28.7981 23.1579 28.5007 23.3297L27.5 21.5977C28.0366 21.2879 28.4416 20.8421 28.6953 20.3301L28.8125 19.998C28.8716 19.832 28.9173 19.6677 28.9492 19.5039C28.9496 19.5019 28.9508 19.5001 28.9512 19.498C28.979 19.3537 28.9903 19.2095 28.9941 19.0645C28.9951 19.0174 28.9927 18.9704 28.9904 18.9233C28.9897 18.9086 28.9889 18.8937 28.9883 18.8789C28.9831 18.7495 28.97 18.6226 28.9492 18.498C28.9333 18.4066 28.9134 18.3153 28.8887 18.2246C28.8651 18.1356 28.8379 18.0483 28.8066 17.9629C28.7615 17.8421 28.7083 17.7226 28.6465 17.6055ZM17.9941 28.4727L18.0449 28.9043C18.2496 30.6522 19.6964 32 21.5 32C22.0397 32 22.5458 31.8788 23 31.6621V25.4375C22.6902 25.6196 22.3565 25.7653 22.0038 25.8627L22 25.8638C21.6821 25.9513 21.3488 25.9996 21.0039 26L21.002 24C22.1132 23.9987 22.9928 23.1183 22.9941 22.0071V22.002H23V16.1895C22.7107 16.0851 22.4098 16.023 22.1074 16.0098C21.3061 15.9746 20.4969 16.2609 19.8789 16.8789C19.6805 17.0773 19.5188 17.2976 19.3887 17.5293C19.3023 17.6825 19.2331 17.8402 19.1758 18C19.1528 18.066 19.1355 18.1333 19.118 18.2006C19.1158 18.2093 19.1136 18.2179 19.1113 18.2266C19.0914 18.2997 19.0767 18.3735 19.0625 18.4473C18.9699 18.9625 19.0081 19.4983 19.1855 20L19.2969 20.3164C19.5502 20.8337 19.9585 21.285 20.4995 21.5974L19.5 23.3301C19.2026 23.1584 18.9322 22.9578 18.6886 22.7355C18.3849 22.4583 18.1218 22.1466 17.8963 21.8125C17.8671 21.7692 17.8385 21.7256 17.8105 21.6816C17.5275 21.867 17.269 22.086 17.0415 22.3333C16.3961 23.0348 16 23.964 16 25C16 26.3271 16.6481 27.4824 17.6445 28.2148L17.9941 28.4727Z" fill="#53D769"/>
</svg>