<svg xmlns="http://www.w3.org/2000/svg" width="48" height="48" viewBox="0 0 48 48" fill="none">
<circle cx="24" cy="24" r="24" fill="#FF8686" fill-opacity="0.2"/>
<path d="M32.6367 29.0488V27.1397C32.6367 26.5874 32.189 26.1397 31.6367 26.1397H24.6445V24.7846L28.4563 22.4953C28.7573 22.3145 28.9414 21.9891 28.9414 21.638V16.5337C28.9414 16.1826 28.7573 15.8572 28.4563 15.6764L24.5149 13.3092C24.198 13.1189 23.802 13.1189 23.4851 13.3092L19.5437 15.6764C19.2427 15.8572 19.0586 16.1826 19.0586 16.5337V21.638C19.0586 21.9891 19.2427 22.3145 19.5437 22.4953L23.3555 24.7846V26.1397H16.3633C15.811 26.1397 15.3633 26.5874 15.3633 27.1397V29.0488C14.0136 29.345 13 30.5505 13 31.9892C13 33.6495 14.3493 35 16.0078 35C17.6663 35 19.0156 33.6495 19.0156 31.9892C19.0156 30.5507 18.002 29.345 16.6523 29.0488V27.93C16.6523 27.6539 16.8762 27.43 17.1523 27.43H23.3555V29.0488C22.0058 29.345 20.9922 30.5505 20.9922 31.9892C20.9922 33.6495 22.3415 35 24 35C25.6585 35 27.0078 33.6495 27.0078 31.9892C27.0078 30.5507 25.9942 29.345 24.6445 29.0488V27.43H30.8477C31.1238 27.43 31.3477 27.6539 31.3477 27.93V29.0488C29.998 29.345 28.9844 30.5505 28.9844 31.9892C28.9844 33.6495 30.3337 35 31.9922 35C33.6507 35 35 33.6495 35 31.9892C35 30.5505 33.9864 29.345 32.6367 29.0488ZM24.6445 23.2797V20.0534L27.6523 18.2469V21.4732L24.6445 23.2797ZM24 14.5049L27.6523 16.6985V16.742L24 18.9356L20.3477 16.742V16.6985L24 14.5049ZM20.3477 18.2467L23.3555 20.0532V23.2797L20.3477 21.4732V18.2467ZM17.7266 31.9892C17.7266 32.938 16.9555 33.7097 16.0078 33.7097C15.0602 33.7097 14.2891 32.938 14.2891 31.9892C14.2891 31.0406 15.0602 30.2687 16.0078 30.2687C16.9555 30.2687 17.7266 31.0406 17.7266 31.9892ZM25.7188 31.9892C25.7188 32.938 24.9477 33.7097 24 33.7097C23.0523 33.7097 22.2812 32.938 22.2812 31.9892C22.2812 31.0406 23.0523 30.2687 24 30.2687C24.9477 30.2687 25.7188 31.0406 25.7188 31.9892ZM31.9922 33.7097C31.0445 33.7097 30.2734 32.938 30.2734 31.9892C30.2734 31.0406 31.0445 30.2687 31.9922 30.2687C32.9398 30.2687 33.7109 31.0406 33.7109 31.9892C33.7109 32.938 32.9398 33.7097 31.9922 33.7097Z" fill="#FF8686" stroke="#FF8686" stroke-width="0.6"/>
</svg>