<svg xmlns="http://www.w3.org/2000/svg" width="48" height="48" viewBox="0 0 48 48" fill="none">
<circle cx="24" cy="24" r="24" fill="#0658FD" fill-opacity="0.2"/>
<path d="M16.1112 24.1115L16.1113 24.1114L24.1112 16.1115C24.1113 16.1114 24.1113 16.1114 24.1113 16.1114C25.1806 15.0427 26.5886 14.5078 28 14.5078C29.4113 14.5078 30.8193 15.0427 31.8886 16.1114C34.028 18.2508 34.0276 21.7496 31.8886 23.8886L31.7422 24.0351V24.037L23.8886 31.8886L23.8886 31.8886C22.8189 32.9584 21.4066 33.5 20 33.5C18.6308 33.5 17.2571 32.9882 16.1978 31.9751L16.1113 31.8886C13.9714 29.7487 13.9713 26.2503 16.1112 24.1115ZM31.1816 16.8183L31.1816 16.8182C30.2997 15.9368 29.1503 15.4941 28 15.4941C26.8496 15.4941 25.7002 15.9368 24.8184 16.8182L24.8183 16.8183L21.5253 20.1113L21.1718 20.4648L21.5253 20.8184L27.1816 26.4746L27.5351 26.8282L27.8887 26.4746L31.1816 23.1818C31.1816 23.1817 31.1816 23.1817 31.1816 23.1817C32.9476 21.4166 32.9478 18.5844 31.1816 16.8183ZM20.8184 21.5254L20.4648 21.1718L20.1113 21.5254L16.8184 24.8182C16.8183 24.8183 16.8183 24.8183 16.8183 24.8183C15.0524 26.5834 15.0522 29.4156 16.8183 31.1817L16.8186 31.182C17.7019 32.0637 18.8473 32.5 20 32.5C21.1529 32.5 22.2991 32.0643 23.1816 31.1817L26.4746 27.8887L26.8282 27.5352L26.4746 27.1816L20.8184 21.5254Z" fill="#0658FD" stroke="#0658FD"/>
</svg>