<svg xmlns="http://www.w3.org/2000/svg" width="32" height="32" viewBox="0 0 32 32" fill="none">
<circle opacity="0.2" cx="16" cy="16" r="16" fill="#0658FD"/>
<path d="M15.6761 8.77593L15.5166 8.96519L15.6761 8.77593ZM15.6761 8.77593L15.8356 8.96519L15.8358 8.96547L15.6761 8.77593ZM15.5163 8.9655L15.5164 8.96547L15.8388 8.96902L15.8489 8.9811L15.8898 9.0302C15.9258 9.07375 15.9792 9.13857 16.0473 9.22257C16.1836 9.3906 16.379 9.63522 16.6137 9.93972C17.0837 10.5492 17.7095 11.3962 18.3346 12.3474C18.9644 13.3056 19.5979 14.3387 20.0735 15.3733C20.551 16.4124 20.8522 17.4171 20.8522 18.3239C20.8522 21.1899 18.542 23.5 15.6761 23.5C12.8101 23.5 10.5 21.1899 10.5 18.3239C10.5 17.4171 10.8011 16.4124 11.2787 15.3733C11.7542 14.3387 12.3877 13.3056 13.0175 12.3474C13.6427 11.3962 14.2685 10.5492 14.7384 9.93972C14.9732 9.63522 15.1686 9.3906 15.3048 9.22257C15.373 9.13857 15.4263 9.07375 15.4624 9.0302L15.5032 8.9811L15.5134 8.96902L15.5158 8.96618L15.5163 8.96557L15.5163 8.9655ZM16.0639 9.97642L15.6761 9.49997L15.2883 9.97642C15.2493 10.0243 15.2081 10.0745 15.1645 10.1277C14.7875 10.5869 14.2281 11.2684 13.3681 12.5769C12.7492 13.5185 12.1439 14.5809 11.6911 15.5821C11.2466 16.5652 10.919 17.5535 10.919 18.3239C10.919 20.9893 13.0107 23.081 15.6761 23.081C18.3415 23.081 20.4331 20.9893 20.4331 18.3239C20.4331 17.5535 20.1055 16.5652 19.661 15.5821C19.2083 14.5809 18.6029 13.5185 17.9841 12.5769C17.124 11.2684 16.5647 10.5869 16.1877 10.1277C16.144 10.0745 16.1028 10.0243 16.0639 9.97642ZM17.3046 17.8239H14.0475V17.4049H17.3046V17.8239Z" fill="#0658FD" stroke="#0658FD"/>
</svg>