<svg xmlns="http://www.w3.org/2000/svg" width="98" height="102" viewBox="0 0 98 102" fill="none">
<g filter="url(#filter0_d_927_5234)">
<rect x="81.5" y="0.499756" width="69" height="69" rx="34.5" transform="rotate(90 81.5 0.499756)" fill="white" stroke="#BFD6D5"/>
<path fill-rule="evenodd" clip-rule="evenodd" d="M44.875 12.4998C44.875 11.3262 45.8264 10.3748 47 10.3748C60.5432 10.3748 71.625 21.0639 71.625 34.3748C71.625 47.0989 61.4162 58.8028 48.3768 59.5836C46.3833 59.703 44.875 58.0788 44.875 56.2498V48.1248C44.875 46.9511 45.8264 45.9998 47 45.9998C48.1736 45.9998 49.125 46.9511 49.125 48.1248V55.254C59.308 54.0898 67.375 44.6623 67.375 34.3748C67.375 23.5232 58.3096 14.6248 47 14.6248C45.8264 14.6248 44.875 13.6734 44.875 12.4998Z" fill="#22B38C"/>
<path fill-rule="evenodd" clip-rule="evenodd" d="M27.0085 64.2244C26.056 63.5388 25.8396 62.2109 26.5252 61.2583L29.7139 56.8279C30.6194 55.5698 30.4155 53.4912 28.9388 51.9391C24.8728 47.6652 22.3749 41.9312 22.3749 35.6247C22.3749 22.4667 33.3053 10.3747 46.9999 10.3747C48.1735 10.3747 49.1249 11.3261 49.1249 12.4997C49.1249 13.6733 48.1735 14.6247 46.9999 14.6247C35.8417 14.6247 26.6249 24.6202 26.6249 35.6247C26.6249 40.7824 28.6625 45.4827 32.018 49.0097C34.475 51.5923 35.5917 55.9367 33.1634 59.3106L29.9746 63.741C29.289 64.6936 27.9611 64.91 27.0085 64.2244Z" fill="#22B38C"/>
<path d="M27.6249 66.2497C25.2087 66.2497 23.2499 64.2909 23.2499 61.8747C23.2499 59.4584 25.2087 57.4997 27.6249 57.4997C30.0412 57.4997 31.9999 59.4584 31.9999 61.8747C31.9999 64.2909 30.0412 66.2497 27.6249 66.2497Z" fill="#22B38C"/>
<path fill-rule="evenodd" clip-rule="evenodd" d="M39.7501 30.3901V37.4998C39.7501 41.5038 42.996 44.7498 47.0001 44.7498C51.0041 44.7498 54.2501 41.5038 54.2501 37.4998V30.3901C51.7615 30.9341 49.8157 33.0041 49.5071 35.6267L49.1105 38.9981C48.9846 40.0683 48.0776 40.8748 47.0001 40.8748C45.9225 40.8748 45.0155 40.0683 44.8896 38.9981L44.493 35.6267C44.1844 33.0041 42.2386 30.9341 39.7501 30.3901ZM35.5001 28.9461C35.5001 27.3189 36.8192 25.9998 38.4464 25.9998C41.9759 25.9998 45.1293 27.7784 47.0001 30.5296C48.8708 27.7784 52.0242 25.9998 55.5537 25.9998C57.1809 25.9998 58.5001 27.3189 58.5001 28.9461V37.4998C58.5001 43.8511 53.3513 48.9998 47.0001 48.9998C40.6488 48.9998 35.5001 43.8511 35.5001 37.4998V28.9461Z" fill="#FF1744"/>
<path fill-rule="evenodd" clip-rule="evenodd" d="M45.4976 23.4973C46.3274 22.6674 47.6729 22.6674 48.5028 23.4973L52.8778 27.8723L49.8726 30.8775L47.0002 28.0051L44.1278 30.8775L41.1226 27.8723L45.4976 23.4973Z" fill="#FF1744"/>
</g>
<defs>
<filter id="filter0_d_927_5234" x="-4" y="-0.000244141" width="102" height="102" filterUnits="userSpaceOnUse" color-interpolation-filters="sRGB">
<feFlood flood-opacity="0" result="BackgroundImageFix"/>
<feColorMatrix in="SourceAlpha" type="matrix" values="0 0 0 0 0 0 0 0 0 0 0 0 0 0 0 0 0 0 127 0" result="hardAlpha"/>
<feOffset dy="16"/>
<feGaussianBlur stdDeviation="8"/>
<feColorMatrix type="matrix" values="0 0 0 0 0.0164832 0 0 0 0 0.0116667 0 0 0 0 0.116667 0 0 0 0.04 0"/>
<feBlend mode="normal" in2="BackgroundImageFix" result="effect1_dropShadow_927_5234"/>
<feBlend mode="normal" in="SourceGraphic" in2="effect1_dropShadow_927_5234" result="shape"/>
</filter>
</defs>
</svg>