<svg width="24" height="20" viewBox="0 0 24 20" fill="none" xmlns="http://www.w3.org/2000/svg">
<path fill-rule="evenodd" clip-rule="evenodd" d="M2.03739 8.29327C8.23887 5.59139 12.3742 3.81014 14.4433 2.94953C20.351 0.492314 21.5786 0.0654687 22.3787 0.051374C22.5547 0.0482741 22.9481 0.0918864 23.203 0.2987C23.4182 0.473329 23.4774 0.709228 23.5058 0.874796C23.5341 1.04036 23.5694 1.41753 23.5413 1.71224C23.2212 5.07598 21.8359 13.2389 21.1312 17.0064C20.833 18.6005 20.2458 19.135 19.6774 19.1873C18.442 19.301 17.504 18.3709 16.3075 17.5866C14.4352 16.3593 13.3774 15.5953 11.5601 14.3976C9.45976 13.0136 10.8213 12.2529 12.0183 11.0097C12.3315 10.6843 17.7745 5.73348 17.8799 5.28437C17.893 5.2282 17.9053 5.01882 17.7809 4.90826C17.6565 4.79771 17.4729 4.83551 17.3404 4.86558C17.1527 4.9082 14.1616 6.88515 8.3674 10.7964C7.51841 11.3794 6.74943 11.6634 6.06044 11.6486C5.30089 11.6321 3.83981 11.2191 2.75365 10.866C1.42144 10.433 0.362616 10.204 0.454816 9.46857C0.502839 9.0855 1.03036 8.69373 2.03739 8.29327Z" fill="white"/>
</svg>
