<svg xmlns="http://www.w3.org/2000/svg" width="32" height="19" viewBox="0 0 32 19" fill="none">
<path d="M4.70001 0H1.20001C0.200013 0 0 0.470752 0 0.98985C0 1.91688 1.18658 6.51481 5.52491 12.5959C8.4171 16.7488 12.492 19 16.2 19C18.4248 19 18.7 18.5 18.7 17.6388V14.5C18.7 13.5 18.9108 13.3004 19.6153 13.3004C20.1344 13.3004 21.0243 13.56 23.1008 15.5623C25.4739 17.9354 25.8652 19 27.2 19H30.7C31.7 19 32.2 18.5 31.9116 17.5133C31.5959 16.5299 30.4629 15.103 28.9595 13.4117C28.1437 12.4476 26.9201 11.4094 26.5492 10.8902C26.0301 10.2228 26.1785 9.92611 26.5492 9.33288L26.6115 9.24457C27.1389 8.49498 30.8453 3.18024 31.2584 1.28656C31.4808 0.544944 31.2584 0 30.2 0H26.7C25.8101 0 25.3998 0.470752 25.1773 0.98985C25.1773 0.98985 23.3974 5.32824 20.876 8.1463C20.0603 8.96204 19.6894 9.22159 19.2445 9.22159C19.022 9.22159 18.7 8.96204 18.7 8.22049V1.28656C18.7 0.396621 18.4417 0 17.7 0H12.2C11.6439 0 11.3094 0.41304 11.3094 0.804493C11.3094 1.64813 12.5701 1.84269 12.7 4.21585V9.36998C12.7 10.5 12.4959 10.7049 12.051 10.7049C10.8645 10.7049 7.97824 6.34711 6.26645 1.36069C5.93099 0.391499 5.59451 0 4.70001 0Z" fill="white"/>
</svg>