<svg width="24" height="18" viewBox="0 0 24 18" fill="none" xmlns="http://www.w3.org/2000/svg">
<path fill-rule="evenodd" clip-rule="evenodd" d="M21.3904 1.114C22.4184 1.39077 23.2289 2.20131 23.5057 3.22931C24.0197 5.10739 23.9999 9.02171 23.9999 9.02171C23.9999 9.02171 23.9999 12.9163 23.5057 14.7943C23.2289 15.8223 22.4184 16.6329 21.3904 16.9096C19.5123 17.4039 11.9999 17.4039 11.9999 17.4039C11.9999 17.4039 4.50739 17.4039 2.60954 16.8899C1.58154 16.6131 0.771002 15.8026 0.494232 14.7746C0 12.9163 0 9.00194 0 9.00194C0 9.00194 0 5.10739 0.494232 3.22931C0.771002 2.20131 1.60131 1.371 2.60954 1.09423C4.48762 0.599998 11.9999 0.599998 11.9999 0.599998C11.9999 0.599998 19.5123 0.599998 21.3904 1.114ZM15.8545 9.00192L9.60742 12.5999V5.40392L15.8545 9.00192Z" fill="white"/>
</svg>
